PathFileType	4	(X/Y/Z)	C:\Users\Basilio\Documents\Thesis Gigler\squatting_fais\c3dfiles\040\SLS_pre_front5\markers_experimental.trc
DataRate	CameraRate	NumFrames	NumMarkers	Units	OrigDataRate	OrigDataStartFrame	OrigNumFrames
200.000000	200.000000	4	62	mm	200.000000	818	1309
Frame#	Time	FHD			LBHD			RBHD			C7			T10			CLAV			LSHO			LUUPA			LMUPA			LDUPA			LLEP			LMEP			LRAD			LUL			LRFIN			RSHO			RUPA1			RMUPA			RDUPA			RLEP			RMEP			RRAD			RUL			RUFIN			LASI			RASI			USACR			LSACR			RSACR			LTHI1			LTHI2			LTHI3			LTHI4			LLFC			LMFC			LTIB1			LTIB2			LTIB3			LTIB4			LLMAL			LMMAL			LHEE			LMT1			LMT2			LMT5			RTHI			RTHI2			RTHI3			RTHI4			RLFC			RMFC			RTIB1			RTIB2			RTIB3			RTIB4			RLMAL			RMMAL			RHEE			RMT1			RMT2			RMT5			*61			
		X1	Y1	Z1	X2	Y2	Z2	X3	Y3	Z3	X4	Y4	Z4	X5	Y5	Z5	X6	Y6	Z6	X7	Y7	Z7	X8	Y8	Z8	X9	Y9	Z9	X10	Y10	Z10	X11	Y11	Z11	X12	Y12	Z12	X13	Y13	Z13	X14	Y14	Z14	X15	Y15	Z15	X16	Y16	Z16	X17	Y17	Z17	X18	Y18	Z18	X19	Y19	Z19	X20	Y20	Z20	X21	Y21	Z21	X22	Y22	Z22	X23	Y23	Z23	X24	Y24	Z24	X25	Y25	Z25	X26	Y26	Z26	X27	Y27	Z27	X28	Y28	Z28	X29	Y29	Z29	X30	Y30	Z30	X31	Y31	Z31	X32	Y32	Z32	X33	Y33	Z33	X34	Y34	Z34	X35	Y35	Z35	X36	Y36	Z36	X37	Y37	Z37	X38	Y38	Z38	X39	Y39	Z39	X40	Y40	Z40	X41	Y41	Z41	X42	Y42	Z42	X43	Y43	Z43	X44	Y44	Z44	X45	Y45	Z45	X46	Y46	Z46	X47	Y47	Z47	X48	Y48	Z48	X49	Y49	Z49	X50	Y50	Z50	X51	Y51	Z51	X52	Y52	Z52	X53	Y53	Z53	X54	Y54	Z54	X55	Y55	Z55	X56	Y56	Z56	X57	Y57	Z57	X58	Y58	Z58	X59	Y59	Z59	X60	Y60	Z60	X61	Y61	Z61	X62	Y62	Z62	

819	4.09	-233.6040344238282	1695.119384765625	-1151.316162109375	-340.1303100585938	1616.706298828125	-1199.461303710938	-389.3341064453126	1564.109252929688	-1070.570068359375	-358.5455322265626	1466.506225585938	-1111.404296875	-427.442596435547	1165.204711914063	-1079.21728515625	nan	nan	nan	-298.6296997070313	1472.306396484375	-1248.496459960938	-140.7222442626953	1457.503173828125	-1326.529907226563	-113.7876434326172	1472.83349609375	-1287.425659179688	-71.17635345458986	1456.012939453125	-1327.174072265625	-10.31796741485596	1439.2177734375	-1327.539184570313	-11.89014434814453	1382.571411132813	-1296.323974609375	nan	nan	nan	257.7268066406251	1508.033447265625	-1271.861328125	326.6350402832032	1522.37060546875	-1177.80615234375	-255.722396850586	1462.909301757813	-987.8406982421877	-88.28379058837892	1423.522094726563	-920.3255615234377	-66.29786682128908	1450.484497070313	-954.7424926757815	-20.69259452819825	1415.996459960938	-932.7606201171877	40.56561279296876	1415.956665039063	-949.934020996094	32.63403320312501	1362.233764648438	-1001.836730957031	279.6772460937501	1510.9384765625	-1097.636596679688	296.9805603027344	1488.85546875	-1025.584350585938	378.7047729492188	1524.272216796875	-1096.8623046875	-284.2502136230469	966.3165283203127	-1178.218627929688	-277.3844909667969	982.652282714844	-955.8619384765627	-462.0430297851564	1026.33740234375	-1060.716064453125	-474.3670959472657	995.5779418945315	-1087.766845703125	-472.1680297851564	997.8757324218752	-1030.825561523438	-302.4547119140626	705.3601684570314	-1216.3232421875	-232.5842742919922	656.4135131835939	-1219.415405273438	-192.6209564208985	680.2698364257814	-1225.098876953125	-224.8430175781251	601.5707397460939	-1197.644775390625	-151.4979858398438	500.7553100585939	-1177.381591796875	-161.1535797119141	499.1631469726564	-1051.979736328125	-179.30859375	287.0909729003907	-1109.763549804688	-255.1067657470704	273.5325012207032	-1152.56689453125	-216.8202667236329	255.4421691894532	-1137.342895507813	-246.7486419677735	183.838363647461	-1090.382446289063	-343.7942810058594	126.7494430541992	-1101.65673828125	-307.7766723632813	137.569580078125	-1018.469543457031	-412.4457092285157	97.23950958251956	-1048.33740234375	-197.5064544677735	54.61458587646486	-1048.732055664063	-203.4220428466797	51.83903884887697	-1095.110717773438	-260.6749267578126	39.46559143066407	-1136.4833984375	-228.400863647461	749.4288330078126	-879.2739868164065	-170.7224731445313	718.8877563476564	-892.0625610351565	-143.8934936523438	737.9530029296876	-898.746276855469	-155.4321594238282	638.1292114257814	-901.2227172851565	-79.38382720947267	528.6536254882814	-917.7175292968752	-75.72386169433595	527.7609863281251	-1054.1103515625	64.85395812988283	404.3519592285157	-949.5227050781252	49.27614212036134	299.2497863769532	-926.7107543945315	88.76355743408205	320.6403503417969	-937.423767089844	127.8005599975586	293.8900451660157	-972.4870605468752	153.6175079345703	168.4952850341797	-954.7397460937502	155.3697662353516	193.0995635986329	-1040.818359375	125.0456237792969	96.07405853271487	-1008.902954101563	311.3598327636719	217.4096069335938	-1030.452270507813	307.5660400390626	216.5469665527344	-990.788757324219	293.1816101074219	170.7909240722657	-938.615173339844	nan	nan	nan	
820	4.095	-234.0450439453126	1696.722778320313	-1151.432495117188	-340.6419372558594	1618.178833007813	-1199.626708984375	-389.4524536132814	1565.502319335938	-1070.736083984375	-358.8097534179688	1467.90869140625	-1111.34716796875	-427.0332946777345	1166.54345703125	-1079.439697265625	nan	nan	nan	-298.8380126953126	1473.789672851563	-1248.683349609375	-140.8734130859375	1458.8935546875	-1326.83837890625	-114.1836776733399	1474.161865234375	-1287.767578125	-71.5915985107422	1457.4267578125	-1327.497314453125	-10.54122066497803	1440.559326171875	-1327.755249023438	-12.48853302001953	1384.423950195313	-1296.772583007813	nan	nan	nan	257.3714599609376	1509.887939453125	-1272.1015625	326.5628967285157	1524.229248046875	-1178.290893554688	-255.9072723388672	1464.251831054688	-987.7568359375002	-88.47507476806642	1424.798217773438	-920.3139648437502	-66.59007263183595	1451.935302734375	-954.6739501953127	-20.95495414733887	1417.528564453125	-932.4530029296877	40.24053955078126	1418.29296875	-949.8881835937502	32.21133422851563	1363.994140625	-1001.843383789063	279.6991577148438	1512.326416015625	-1097.469116210938	296.8648986816407	1490.578735351563	-1025.357788085938	378.0269470214844	1526.177734375	-1096.758544921875	-283.6678466796876	967.6311645507815	-1178.299560546875	-276.8114318847657	984.0061035156252	-956.0638427734377	-461.3197326660157	1027.604125976563	-1060.964721679688	-473.5592041015626	996.8546142578127	-1088.011108398438	-471.4854736328126	999.1961669921877	-1031.025512695313	-302.4257202148438	706.2596435546876	-1216.145751953125	-232.7546386718751	657.2169189453126	-1219.086303710938	-192.763900756836	680.8622436523439	-1224.989013671875	-225.2230834960938	602.3491210937501	-1197.325927734375	-152.1902465820313	501.2052612304689	-1176.936645507813	-161.7041931152344	499.5813293457032	-1051.725219726563	-179.5705871582032	287.6654357910157	-1109.5458984375	-255.3746490478516	273.7340698242188	-1152.331420898438	-217.0480346679688	255.6179351806641	-1137.04052734375	-246.8415832519532	184.0537261962891	-1090.201049804688	-343.8155822753907	126.8929595947266	-1101.808227539063	-307.5336303710938	137.0009765625	-1018.207763671875	-412.4332580566407	97.25294494628909	-1048.313232421875	-197.1482696533204	54.06953430175783	-1049.007568359375	-203.4319152832032	51.83483886718751	-1095.034057617188	-260.5450439453126	39.48486328125001	-1136.445434570313	-228.0194854736329	750.9709472656251	-879.2391357421877	-170.6158294677735	720.3657836914064	-891.8816528320315	-143.3706665039063	738.7965087890626	-899.0896606445315	-155.0938262939453	639.0713500976564	-901.433288574219	-79.21768951416017	529.2348022460939	-917.8588867187502	-75.77458953857423	528.5438232421876	-1054.421875	64.20315551757814	404.611541748047	-949.5434570312502	48.49408340454103	299.5418395996094	-926.8834228515627	88.20741271972658	321.1220703125001	-937.5096435546877	127.2897338867188	294.3404235839844	-972.506286621094	152.2808074951172	168.7464599609375	-954.5936279296877	154.5445251464844	193.6794128417969	-1040.947265625	123.9608535766602	96.46067047119143	-1008.859191894531	310.4533386230469	217.2767181396485	-1030.257934570313	306.7742614746094	216.3962707519532	-990.756042480469	291.9045715332032	170.4098052978516	-938.5618896484377	nan	nan	nan	
821	4.1	-234.6198272705079	1698.398559570313	-1151.5625	-341.2701721191407	1619.88525390625	-1199.705200195313	-389.8896484375001	1566.840698242188	-1070.944702148438	-358.9326477050782	1469.278930664063	-1111.552978515625	-426.9994506835939	1167.285766601563	-1079.795654296875	nan	nan	nan	-299.2792663574219	1474.967895507813	-1248.86279296875	-141.2498931884766	1460.22705078125	-1327.02490234375	-113.9429168701172	1475.397827148438	-1287.998046875	-71.71916961669923	1458.85498046875	-1327.747802734375	-10.77479267120362	1442.16064453125	-1328.213256835938	-12.00069427490235	1385.375610351563	-1297.027221679688	nan	nan	nan	257.8005065917969	1511.287841796875	-1272.388305664063	326.5313415527344	1526.123901367188	-1178.7451171875	-256.2608947753907	1465.94580078125	-987.8438720703127	-88.71408843994142	1426.951293945313	-920.1128540039065	-66.73610687255861	1453.614990234375	-954.679870605469	-20.90708732604981	1419.148193359375	-932.399841308594	39.96795654296876	1419.332153320313	-949.684997558594	32.34960174560548	1365.526977539063	-1001.610290527344	279.3847351074219	1514.094482421875	-1097.2392578125	296.8382873535157	1492.2158203125	-1025.283935546875	377.2131652832032	1527.502685546875	-1095.887817382813	-282.8590087890626	968.868347167969	-1178.609985351563	-275.7702331542969	984.5388183593752	-956.2547607421877	-460.8041076660157	1028.950805664063	-1061.237915039063	-472.9397583007814	998.1176757812502	-1088.269409179688	-470.7894287109376	1000.580627441406	-1031.2685546875	-302.4544372558594	707.2313842773439	-1216.03857421875	-233.0403137207032	657.9575195312501	-1218.873046875	-192.9636993408204	681.5468750000001	-1224.78369140625	-225.4600524902344	603.0133666992189	-1196.6298828125	-153.0839538574219	501.9178771972657	-1176.568969726563	-162.584716796875	500.0642700195314	-1051.385009765625	-180.1639251708985	288.0397033691407	-1109.040649414063	-255.6790618896485	273.9749145507813	-1152.13818359375	-217.3678283691407	255.9506225585938	-1136.938720703125	-246.9619750976563	184.2112121582032	-1090.01171875	-343.8224487304688	126.903678894043	-1101.679443359375	-307.6032104492188	136.9580688476563	-1018.0908203125	-412.4298095703126	97.22346496582034	-1048.262329101563	-197.4343261718751	54.58750152587892	-1048.638061523438	-203.3644104003907	51.89122772216798	-1094.982055664063	-260.5350036621094	39.52139282226563	-1136.386352539063	-227.5572967529297	751.9581298828126	-879.3103637695315	-170.2637481689453	720.9566650390626	-891.6140747070315	-143.3263854980469	740.1268920898439	-898.9785156250002	-155.2465057373047	640.2639770507814	-901.3667602539065	-79.33501434326173	530.2808837890626	-917.9212036132815	-76.45458221435548	529.7464599609376	-1054.489624023438	64.00960540771486	404.8980712890626	-949.5383300781252	47.89062881469727	299.5812988281251	-927.3062133789065	87.24394989013673	321.3114624023438	-937.6221923828127	126.3671112060547	294.6108093261719	-972.5303955078127	151.4384460449219	169.090316772461	-954.596374511719	153.5365753173828	193.9023590087891	-1040.810791015625	122.5348587036133	96.23028564453128	-1009.015258789063	309.3676147460938	217.0874938964844	-1030.086669921875	306.1697692871094	216.2523498535157	-990.8262329101565	290.9295959472657	170.194580078125	-938.6187744140627	nan	nan	nan	
822	4.105	-235.1850738525391	1699.865112304688	-1151.561767578125	-341.4966430664063	1621.17822265625	-1199.715087890625	-390.2674255371095	1568.354614257813	-1070.963500976563	-359.2364196777344	1470.55810546875	-1111.685791015625	-426.0792236328126	1168.896240234375	-1079.820434570313	nan	nan	nan	-299.4990844726563	1476.527221679688	-1249.044555664063	-141.2946166992188	1461.50634765625	-1327.318359375	-114.5140380859375	1476.908935546875	-1288.424926757813	-71.98031616210939	1460.266845703125	-1328.210205078125	-10.9920711517334	1443.634765625	-1328.4814453125	-12.56358528137207	1387.326049804688	-1297.2841796875	nan	nan	nan	256.9521179199219	1513.348266601563	-1272.735595703125	326.2743835449219	1528.179809570313	-1179.113159179688	-256.5848388671876	1467.18310546875	-987.8296508789065	-89.21511077880861	1427.6494140625	-919.9622802734377	-66.93224334716798	1455.0302734375	-954.3372802734377	-21.21529388427735	1420.805053710938	-932.1895751953127	39.72957229614259	1421.364501953125	-949.4724121093752	32.20494842529298	1366.75341796875	-1001.406433105469	279.2516784667969	1515.631469726563	-1097.103637695313	295.7709045410157	1493.086669921875	-1025.482055664063	377.0293579101563	1528.78857421875	-1095.698608398438	-281.8987121582032	969.9216918945315	-1178.997802734375	-274.7008361816407	986.180114746094	-956.9267578125002	-460.0899658203126	1030.710327148438	-1061.384033203125	-472.1661987304689	999.4522705078127	-1088.480346679688	-470.3279113769532	1001.941833496094	-1031.440795898438	-302.6851806640626	708.5126342773439	-1215.852905273438	-233.3516387939454	658.7320556640626	-1218.750732421875	-193.0495910644532	681.9237670898439	-1224.7314453125	-225.8993225097657	603.8543090820314	-1196.2998046875	-153.7889404296875	501.8837890625001	-1176.349731445313	-163.3243255615235	500.6246337890626	-1050.954223632813	-180.7795104980469	288.1471252441407	-1108.54248046875	-256.0498352050782	274.2766723632813	-1151.89111328125	-217.5904083251954	256.3280944824219	-1136.830200195313	-247.1502838134766	184.0794219970703	-1089.897216796875	-343.8268432617188	126.972526550293	-1101.553833007813	-307.6585083007813	136.9159240722657	-1018.016845703125	-412.024383544922	96.98020935058597	-1048.021484375	-197.0998535156251	54.08323669433595	-1048.889282226563	-203.406967163086	51.91110229492189	-1094.89013671875	-260.5974426269532	39.55745697021485	-1136.307861328125	-227.1213378906251	753.0889282226564	-879.5319824218752	-169.8813781738282	722.1280517578126	-891.3843383789065	-142.8299560546875	741.2141113281251	-899.660095214844	-155.0594024658203	641.2578125000001	-901.2488403320315	-79.62927246093751	531.2044067382814	-917.9379882812502	-76.45582580566408	530.1102294921876	-1054.21826171875	63.52434158325197	405.3976440429689	-949.6015625000002	47.25182723999024	299.7720336914063	-927.1030273437502	86.77142333984376	321.6981201171876	-937.742614746094	125.615592956543	294.9218444824219	-972.5398559570315	150.6102142333985	169.1292419433594	-954.5942382812502	152.3231964111328	194.1863250732422	-1040.529663085938	121.4235382080078	97.03395080566409	-1008.821044921875	308.4573669433594	216.7980346679688	-1030.035888671875	305.4837341308594	216.0887908935547	-990.8204345703127	289.9844665527344	170.2869720458985	-938.4947509765627	nan	nan	nan	
